<?xml version="1.0" standalone="no"?>
<!DOCTYPE svg PUBLIC "-//W3C//DTD SVG 20010904//EN"
 "http://www.w3.org/TR/2001/REC-SVG-20010904/DTD/svg10.dtd">
<svg version="1.0" xmlns="http://www.w3.org/2000/svg"
 width="500.000000pt" height="500.000000pt" viewBox="0 0 500.000000 500.000000"
 preserveAspectRatio="xMidYMid meet">
<metadata>
Created by potrace 1.11, written by Peter Selinger 2001-2013
</metadata>
<g transform="translate(0.000000,500.000000) scale(0.100000,-0.100000)"
fill="#000000" stroke="none">
<path d="M0 2500 l0 -2500 2500 0 2500 0 0 2500 0 2500 -2500 0 -2500 0 0
-2500z m2133 1354 c138 -35 305 -132 412 -239 l53 -53 53 54 c146 148 347 243
557 263 452 42 855 -236 973 -674 32 -118 33 -336 1 -455 -31 -117 -52 -180
-60 -180 -4 0 -20 21 -37 47 -113 179 -309 327 -510 385 -115 33 -344 33 -458
0 -256 -74 -462 -249 -583 -496 -24 -49 -44 -96 -44 -103 0 -7 -4 -13 -8 -13
-7 0 -553 1420 -568 1476 -5 19 -2 20 75 12 45 -4 109 -15 144 -24z m-859
-634 c-119 -311 -219 -569 -223 -573 -12 -12 -50 140 -60 241 -23 215 37 440
163 616 58 82 187 202 266 248 35 21 65 36 67 35 1 -2 -95 -257 -213 -567z
m582 -105 l131 -375 -273 0 c-151 0 -274 3 -274 8 0 17 274 752 279 747 3 -3
64 -174 137 -380z m1595 -415 c190 -35 354 -208 410 -430 25 -99 34 -83 -144
-267 -137 -142 -289 -279 -465 -421 l-102 -83 -53 28 c-79 42 -178 147 -221
234 -55 114 -71 185 -70 329 0 182 40 306 140 433 42 54 134 125 191 148 90
37 212 48 314 29z m-1303 -472 l90 -243 100 -3 101 -3 7 -37 c21 -124 84 -287
149 -387 40 -61 173 -202 233 -246 l33 -24 -131 -88 -132 -89 -116 78 c-469
312 -965 735 -1167 995 l-35 46 40 109 c23 60 43 115 45 122 3 9 82 12 349 12
l344 0 90 -242z"/>
</g>
</svg>
